<?xml version="1.0" encoding="utf-8"?>
<!-- Generator: Adobe Illustrator 25.4.1, SVG Export Plug-In . SVG Version: 6.00 Build 0)  -->
<svg version="1.1" id="Layer_1" xmlns:serif="http://www.serif.com/"
	 xmlns="http://www.w3.org/2000/svg" xmlns:xlink="http://www.w3.org/1999/xlink" x="0px" y="0px" viewBox="0 0 4000 4000"
	 style="enable-background:new 0 0 4000 4000;" xml:space="preserve">
<style type="text/css">
	.st0{fill:#FFFFFF;}
	.st1{fill-rule:evenodd;clip-rule:evenodd;fill:#738BAB;}
	.st2{fill-rule:evenodd;clip-rule:evenodd;fill:#2D74FF;}
</style>
<rect class="st0" width="4000" height="4000"/>
<g id="Exp-1.-O" serif:id="Exp 1. O">
	<path class="st1" d="M1738.4,1290.2c50.2-19.9,107.3-33.7,170.7-40.1c17.2-1.7,29.7-17,28-34.2c-1.8-17.1-17.1-29.7-34.2-28
		c-69.7,7-132.4,22.3-187.6,44.2c-16.1,6.3-23.9,24.5-17.5,40.6C1704.2,1288.7,1722.4,1296.6,1738.4,1290.2z"/>
	<path class="st1" d="M2062.2,1248.9c73.9,5.6,141.5,6.8,203.2,4.1c17.2-0.7,30.7-15.2,29.9-32.5c-0.7-17.2-15.3-30.6-32.5-29.9
		c-59.6,2.5-124.8,1.3-196-4.1c-17.2-1.3-32.2,11.6-33.5,28.8C2032.1,1232.6,2045.1,1247.6,2062.2,1248.9z"/>
	<path class="st1" d="M2434.2,1234.6c72.9-13.7,134.7-33.9,186.6-58.9c15.6-7.5,22.1-26.2,14.6-41.7c-7.4-15.6-26.1-22.1-41.7-14.7
		c-47.6,22.9-104.3,41.3-171.1,53.9c-16.9,3.2-28.1,19.5-24.9,36.5C2400.9,1226.6,2417.3,1237.8,2434.2,1234.6z"/>
	<path class="st1" d="M2748.2,1088.9c56-54.1,88.9-116.3,103.7-179.6c3.9-16.8-6.6-33.6-23.3-37.6c-16.8-3.9-33.6,6.6-37.6,23.3
		c-12.2,52.6-39.8,104.1-86.2,148.9c-12.4,12-12.8,31.8-0.8,44.2C2716.1,1100.5,2735.8,1100.9,2748.2,1088.9z"/>
	<path class="st1" d="M2837.1,694.1c-24.8-65.9-66.9-121.8-118.1-157.2c-14.2-9.8-33.6-6.2-43.4,8s-6.2,33.7,8,43.5
		c41.4,28.6,75,74.3,95.1,127.7c6.1,16.1,24.1,24.3,40.2,18.2C2834.9,728.2,2843.1,710.2,2837.1,694.1z"/>
	<path class="st1" d="M2022.8,536.8c34.3-161,171.1-239.3,269.7-239.9c32.4-0.2,60.4,7.4,75,26.9c8.6,11.6,11.2,27.1,7.9,46.1
		c-2.9,17,8.5,33.2,25.5,36.1s33.2-8.5,36.1-25.5c6.8-39.1-1.8-70.4-19.5-94.1c-24.8-33.3-70.3-52.4-125.4-52.1
		c-120.1,0.7-288.8,93.4-330.5,289.4c-3.6,16.9,7.1,33.4,24,37.1S2019.2,553.6,2022.8,536.8z"/>
	<path class="st1" d="M1961.9,536.9c42.3,195,210.4,287.2,330.1,288c59.3,0.3,107.4-21.8,130.9-59.9c14.2-23,20.4-52.3,13.8-88.1
		c-8.1-44.1-37.1-100.5-97.8-167.5c-11.6-12.8-31.4-13.8-44.1-2.2c-12.8,11.6-13.8,31.4-2.2,44.2c42.2,46.7,67.3,86.5,78.3,119.9
		c8.3,25.5,8.1,45.9-1.1,61c-8.4,13.6-23.4,21.8-41.4,26.2c-22.7,5.6-49.9,5.2-78.6-0.9c-91.7-19.4-196.8-96.1-226.7-233.9
		c-3.7-16.9-20.3-27.6-37.2-23.9C1969,503.4,1958.3,520,1961.9,536.9z"/>
	<path class="st2" d="M1984,592.8h418.4c34.5,0,62.5-28,62.5-62.5s-28-62.5-62.5-62.5H1984c-34.5,0-62.5,28-62.5,62.5
		S1949.5,592.8,1984,592.8z"/>
	<path class="st1" d="M718.8,3032.5v350.6c0,69,45.2,129.8,111.4,149.6c251.1,75.4,957.5,287.3,1125,337.5c29.2,8.8,60.5,8.8,89.7,0
		c167.5-50.2,873.9-262.1,1125-337.5c66.1-19.8,111.4-80.6,111.4-149.6c0-166.9,0-499.8,0-499.8c0-17.2-14-31.2-31.2-31.2
		s-31.2,14-31.2,31.2v499.8c0,41.4-27.2,77.9-66.8,89.8c-251.1,75.3-957.6,287.2-1125,337.5c-17.6,5.2-36.3,5.2-53.9,0l-1125-337.5
		c-39.6-11.9-66.8-48.4-66.8-89.8v-350.6c0-17.2-14-31.2-31.2-31.2S718.8,3015.2,718.8,3032.5z"/>
	<path class="st1" d="M646,2324.4c0,0-158.2,234.6-239.1,354.5c-16.4,24.4-20.5,55.1-10.9,82.9c9.6,27.8,31.6,49.6,59.6,58.6
		l1124.7,365.4c39.8,12.9,83.2-2,106.6-36.6c83.8-123.8,338.9-500.1,338.9-500.1c5.5-8.1,6.9-18.4,3.7-27.7s-10.6-16.6-19.9-19.6
		l-1250-405.6c-16.4-5.3-34,3.7-39.4,20.1c-5.3,16.4,3.7,34,20.1,39.4l1210.4,392.8l-315.6,465.7c-7.8,11.5-22.3,16.5-35.6,12.2
		L474.9,2761c-9.3-3.1-16.7-10.2-19.9-19.6c-3.2-9.2-1.8-19.5,3.6-27.6l239.1-354.5c9.7-14.3,5.9-33.8-8.4-43.4
		C675.1,2306.2,655.7,2310.1,646,2324.4z"/>
	<path class="st1" d="M3062.6,2254l-1072.2,347.9c-16.4,5.3-25.4,22.9-20.1,39.4c5.4,16.4,23,25.4,39.4,20.1l1072.2-347.9
		c16.4-5.3,25.4-23,20.1-39.4C3096.6,2257.7,3078.9,2248.7,3062.6,2254z"/>
	<path class="st1" d="M2062.6,2779.8c0,0,181.3,267.5,250.4,369.6c23.4,34.6,66.9,49.4,106.6,36.6
		c184.3-59.9,887.2-288.3,1124.7-365.4c28-9.1,50.1-30.8,59.6-58.6c9.6-27.8,5.6-58.6-10.9-82.9c-98-145.3-317.2-470.3-317.2-470.3
		c-9.7-14.2-29.1-18.1-43.4-8.4c-14.2,9.7-18.1,29.1-8.4,43.4c0,0,219.2,324.9,317.2,470.2c5.4,8.1,6.8,18.4,3.6,27.6
		c-3.2,9.3-10.6,16.5-19.9,19.6l-1124.7,365.4c-13.2,4.3-27.8-0.7-35.6-12.2l-250.4-369.6c-9.7-14.3-29.1-18-43.4-8.3
		C2056.7,2746,2052.9,2765.5,2062.6,2779.8z"/>
	<path class="st1" d="M949.5,2194l1060.2-345.1c9.3-3.1,16.7-10.3,19.9-19.6s1.8-19.6-3.8-27.7c0,0-224.5-330.2-302.6-445
		c-23.4-34.4-66.8-49.3-106.5-36.4L492,1685.6c-28,9.1-50.1,30.8-59.7,58.7c-9.6,27.8-5.5,58.5,10.9,82.9
		c90.2,133.8,280.8,416.4,280.8,416.4c9.7,14.2,29.1,18.1,43.4,8.4c14.2-9.6,18.1-29.1,8.4-43.4c0,0-190.6-282.5-280.9-416.3
		c-5.5-8.2-6.8-18.4-3.6-27.7c3.2-9.3,10.6-16.5,19.9-19.6l1124.8-365.4c13.2-4.3,27.7,0.7,35.5,12.1l279.2,410.6L930.2,2134.6
		c-16.4,5.3-25.4,23-20.1,39.4C915.5,2190.3,933.1,2199.3,949.5,2194z"/>
	<path class="st1" d="M1990.3,1848.9l1250,406.9c13.2,4.3,27.8-0.6,35.6-12.2c0,0,190.6-282.6,280.8-416.4
		c16.4-24.4,20.5-55.1,10.9-82.9c-9.6-27.9-31.7-49.6-59.7-58.7l-1124.8-365.4c-39.7-12.9-83.1,2-106.5,36.4l-218.6,321.5
		c-9.7,14.3-6,33.7,8.2,43.4c14.3,9.7,33.8,6,43.4-8.2l218.6-321.6c7.8-11.4,22.2-16.4,35.5-12.1L3488.7,1745
		c9.3,3.1,16.7,10.3,19.9,19.6c3.2,9.3,1.9,19.5-3.6,27.7l-267.7,396.8l-1227.6-399.6c-16.4-5.4-34.1,3.6-39.4,20.1
		C1964.9,1825.9,1973.9,1843.5,1990.3,1848.9z"/>
	<path class="st2" d="M2946.7,2225.9L2000,2533.1l-946.7-307.1l946.7-308.2L2946.7,2225.9z"/>
	<path class="st1" d="M1687.4,1816.2c-16.8-23.7-31.2-47.5-43.4-71.3c-7.8-15.4-26.6-21.5-42-13.6c-15.4,7.8-21.5,26.6-13.7,42
		c13.4,26.4,29.4,52.9,48.1,79.2c10,14.1,29.5,17.3,43.6,7.4C1694.1,1849.9,1697.4,1830.3,1687.4,1816.2z"/>
	<path class="st1" d="M1600.7,1614.9c-5.6-35.6-5.9-70.4-0.9-103.8c2.5-17.1-9.3-32.9-26.4-35.4c-17.1-2.5-32.9,9.3-35.5,26.4
		c-5.8,39.4-5.6,80.5,1.1,122.6c2.7,17.1,18.7,28.7,35.8,26C1591.7,1647.9,1603.4,1631.9,1600.7,1614.9z"/>
</g>
</svg>
