<svg xmlns="http://www.w3.org/2000/svg" version="1.1" xmlns:xlink="http://www.w3.org/1999/xlink" xmlns:svgjs="http://svgjs.dev/svgjs" width="2000" height="363" viewBox="0 0 2000 363"><g transform="matrix(1,0,0,1,-1.2121212121212466,0.1431133155283817)"><svg viewBox="0 0 396 72" data-background-color="#ffffff" preserveAspectRatio="xMidYMid meet" height="363" width="2000" xmlns="http://www.w3.org/2000/svg" xmlns:xlink="http://www.w3.org/1999/xlink"><g id="tight-bounds" transform="matrix(1,0,0,1,0.2400000000000091,-0.028386112170920796)"><svg viewBox="0 0 395.52 72.05677222434184" height="72.05677222434184" width="395.52"><g><svg viewBox="0 0 395.52 72.05677222434184" height="72.05677222434184" width="395.52"><g><svg viewBox="0 0 395.52 72.05677222434184" height="72.05677222434184" width="395.52"><g id="textblocktransform"><svg viewBox="0 0 395.52 72.05677222434184" height="72.05677222434184" width="395.52" id="textblock"><g><svg viewBox="0 0 395.52 72.05677222434184" height="72.05677222434184" width="395.52"><g transform="matrix(1,0,0,1,0,0)"><svg width="395.52" viewBox="1.5 -36.5 262.06 47.75" height="72.05677222434184" data-palette-color="#000000"><path d="M12.5 0.5L12.5 0.5Q9.25 0.5 6.4-0.58 3.55-1.65 1.5-3.8L1.5-3.8 3.2-6.9Q5.45-4.8 7.7-3.9 9.95-3 12.3-3L12.3-3Q15-3 16.7-4.03 18.4-5.05 18.4-7.05L18.4-7.05Q18.4-8.5 17.53-9.2 16.65-9.9 15.05-10.38 13.45-10.85 11.25-11.45L11.25-11.45Q8.55-12.25 6.7-13.15 4.85-14.05 3.9-15.4 2.95-16.75 2.95-18.8L2.95-18.8Q2.95-21.3 4.25-23.03 5.55-24.75 7.83-25.65 10.1-26.55 13-26.55L13-26.55Q15.9-26.55 18.25-25.65 20.6-24.75 22.3-23L22.3-23 20.3-19.95Q18.75-21.55 16.9-22.33 15.05-23.1 12.75-23.1L12.75-23.1Q11.4-23.1 10.1-22.78 8.8-22.45 7.95-21.63 7.1-20.8 7.1-19.3L7.1-19.3Q7.1-18.05 7.78-17.32 8.45-16.6 9.78-16.1 11.1-15.6 13-15L13-15Q15.95-14.15 18.13-13.3 20.3-12.45 21.5-11.1 22.7-9.75 22.7-7.35L22.7-7.35Q22.7-3.65 19.9-1.58 17.1 0.5 12.5 0.5ZM65.69-4.8L66.74-1.3Q66.19-1.05 65.24-0.65 64.29-0.25 63.04 0.05 61.79 0.35 60.39 0.35L60.39 0.35Q58.79 0.35 57.44-0.23 56.09-0.8 55.29-2.02 54.49-3.25 54.49-5.1L54.49-5.1 54.49-22.65 50.94-22.65 50.94-26.1 54.49-26.1 54.49-34.8 58.89-34.8 58.89-26.1 64.74-26.1 64.74-22.65 58.89-22.65 58.89-6.45Q58.99-5.05 59.84-4.38 60.69-3.7 61.84-3.7L61.84-3.7Q63.14-3.7 64.24-4.15 65.34-4.6 65.69-4.8L65.69-4.8ZM95.99 11L95.99 7.1Q96.64 7.15 97.29 7.23 97.94 7.3 98.29 7.3L98.29 7.3Q99.09 7.3 99.69 6.75 100.29 6.2 101.01 4.63 101.74 3.05 102.89 0L102.89 0 91.84-26.1 96.49-26.1 105.29-4.45 113.24-26.1 117.59-26.1 104.89 6.85Q104.44 8 103.56 9.03 102.69 10.05 101.34 10.65 99.99 11.25 98.09 11.25L98.09 11.25Q97.64 11.25 97.16 11.2 96.69 11.15 95.99 11L95.99 11ZM146.08-5.15L146.08-36.5 150.48-36.5 150.48-6.75Q150.48-4.6 151.08-4.1 151.68-3.6 152.53-3.6L152.53-3.6Q153.58-3.6 154.53-3.83 155.48-4.05 156.13-4.3L156.13-4.3 156.83-0.7Q155.73-0.25 154.23 0.05 152.73 0.35 151.58 0.35L151.58 0.35Q149.03 0.35 147.55-1.1 146.08-2.55 146.08-5.15L146.08-5.15ZM195.62 0.5L195.62 0.5Q192.67 0.5 190.25-0.58 187.82-1.65 186.05-3.53 184.27-5.4 183.3-7.85 182.32-10.3 182.32-13.05L182.32-13.05Q182.32-16.75 184.02-19.8 185.72-22.85 188.75-24.7 191.77-26.55 195.67-26.55L195.67-26.55Q199.62-26.55 202.55-24.68 205.47-22.8 207.1-19.78 208.72-16.75 208.72-13.25L208.72-13.25Q208.72-12.75 208.7-12.28 208.67-11.8 208.62-11.55L208.62-11.55 186.97-11.55Q187.17-9 188.4-7.03 189.62-5.05 191.57-3.93 193.52-2.8 195.77-2.8L195.77-2.8Q198.17-2.8 200.3-4 202.42-5.2 203.22-7.15L203.22-7.15 207.02-6.1Q206.17-4.2 204.5-2.7 202.82-1.2 200.55-0.35 198.27 0.5 195.62 0.5ZM186.82-14.6L186.82-14.6 204.62-14.6Q204.42-17.15 203.17-19.1 201.92-21.05 199.97-22.15 198.02-23.25 195.67-23.25L195.67-23.25Q193.37-23.25 191.42-22.15 189.47-21.05 188.25-19.1 187.02-17.15 186.82-14.6ZM250.46 0.5L250.46 0.5Q247.51 0.5 245.09-0.58 242.66-1.65 240.89-3.53 239.11-5.4 238.14-7.85 237.16-10.3 237.16-13.05L237.16-13.05Q237.16-16.75 238.86-19.8 240.56-22.85 243.59-24.7 246.61-26.55 250.51-26.55L250.51-26.55Q254.46-26.55 257.39-24.68 260.31-22.8 261.94-19.78 263.56-16.75 263.56-13.25L263.56-13.25Q263.56-12.75 263.54-12.28 263.51-11.8 263.46-11.55L263.46-11.55 241.81-11.55Q242.01-9 243.24-7.03 244.46-5.05 246.41-3.93 248.36-2.8 250.61-2.8L250.61-2.8Q253.01-2.8 255.14-4 257.26-5.2 258.06-7.15L258.06-7.15 261.86-6.1Q261.01-4.2 259.34-2.7 257.66-1.2 255.39-0.35 253.11 0.5 250.46 0.5ZM241.66-14.6L241.66-14.6 259.46-14.6Q259.26-17.15 258.01-19.1 256.76-21.05 254.81-22.15 252.86-23.25 250.51-23.25L250.51-23.25Q248.21-23.25 246.26-22.15 244.31-21.05 243.09-19.1 241.86-17.15 241.66-14.6Z" opacity="1" transform="matrix(1,0,0,1,0,0)" fill="#000000" class="wordmark-text-0" data-fill-palette-color="primary" id="text-0"></path></svg></g></svg></g></svg></g></svg></g><g></g></svg></g><defs></defs></svg><rect width="395.52" height="72.05677222434184" fill="none" stroke="none" visibility="hidden"></rect></g></svg></g></svg>